<svg width="754" height="63" viewBox="0 0 754 63" fill="none" xmlns="http://www.w3.org/2000/svg">
<path d="M36.57 2.1691C39.897 3.43212 42.8968 5.46393 45.5693 8.26454C51.2962 14.0854 54.1596 21.5125 54.1596 30.5459C54.1596 39.5792 51.2962 47.0338 45.5693 52.9096C42.8968 55.7102 39.897 57.742 36.57 59.005C33.1339 60.4328 29.616 61.1467 26.0162 61.1467H2.86342C2.09984 61.1467 1.43171 60.8583 0.859027 60.2817C0.286342 59.7052 0 59.0325 0 58.2637V52.333C0 51.5093 0.286342 50.8091 0.859027 50.2325C1.43171 49.6559 2.09984 49.3676 2.86342 49.3676H25.7708C30.625 49.3676 34.5656 47.5829 37.5927 44.0135C40.6197 40.4441 42.1332 35.9686 42.1332 30.5871C42.1332 25.2055 40.6197 20.73 37.5927 17.1606C34.5656 13.5912 30.625 11.8065 25.7708 11.8065H2.86342C2.09984 11.8065 1.43171 11.5182 0.859027 10.9416C0.286342 10.365 0 9.66485 0 8.84114V2.91044C0 2.14164 0.286342 1.46895 0.859027 0.892351C1.43171 0.315755 2.09984 0.027457 2.86342 0.027457H26.0162C29.616 0.027457 33.1339 0.741338 36.57 2.1691ZM92.3986 49.6971C93.0531 49.9167 93.5712 50.2874 93.953 50.8091C94.3348 51.3308 94.5257 51.9211 94.5257 52.5801V58.9226C94.5257 59.8013 94.1712 60.5426 93.4621 61.1467C92.9167 61.586 92.3167 61.8056 91.6622 61.8056C91.3895 61.8056 91.1986 61.7782 91.0896 61.7232C86.0172 60.7348 81.6539 58.3735 77.9996 54.6394C73.0909 49.5873 70.6365 42.9427 70.6365 34.7056V2.99281C70.6365 2.1691 70.9229 1.46895 71.4956 0.892351C72.0683 0.315755 72.7364 0.027457 73.5 0.027457H79.7995C80.6176 0.027457 81.313 0.315755 81.8857 0.892351C82.4584 1.46895 82.7447 2.1691 82.7447 2.99281V34.8703C82.7447 40.0872 84.2173 44.0684 87.1626 46.8141C88.6897 48.2419 90.4351 49.2029 92.3986 49.6971ZM120.624 0.027457C121.442 0.027457 122.137 0.315755 122.71 0.892351C123.283 1.46895 123.569 2.1691 123.569 2.99281V34.7056C123.569 42.9427 121.115 49.5873 116.206 54.6394C112.552 58.3735 108.188 60.7348 103.116 61.7232C103.007 61.7782 102.816 61.8056 102.543 61.8056C101.889 61.8056 101.289 61.586 100.743 61.1467C100.034 60.5975 99.6798 59.8287 99.6798 58.8403V52.4977C99.6798 51.8937 99.8707 51.3308 100.253 50.8091C100.634 50.2874 101.152 49.9167 101.807 49.6971C103.88 49.093 105.625 48.132 107.043 46.8141C109.988 44.1782 111.461 40.197 111.461 34.8703V2.99281C111.461 2.1691 111.747 1.46895 112.32 0.892351C112.892 0.315755 113.588 0.027457 114.406 0.027457H120.624ZM199.605 0.027457C200.369 0.027457 201.037 0.315755 201.609 0.892351C202.182 1.46895 202.469 2.14164 202.469 2.91044V58.0989C202.469 58.8677 202.182 59.5404 201.609 60.117C201.037 60.6936 200.369 60.9819 199.605 60.9819H193.387C192.569 60.9819 191.887 60.6936 191.342 60.117C190.797 59.5404 190.524 58.8677 190.524 58.0989V20.8673L175.389 40.4716C174.789 41.1854 174.025 41.5424 173.098 41.5424C172.662 41.5424 172.225 41.4463 171.789 41.2541C171.353 41.0619 171.025 40.7736 170.807 40.3892L143.973 4.64022C143.646 4.25583 143.455 3.77533 143.4 3.19874C143.346 2.62214 143.455 2.10046 143.727 1.63369C144 1.16692 144.355 0.782524 144.791 0.480497C145.227 0.178471 145.718 0.027457 146.264 0.027457H153.463C154.39 0.027457 155.154 0.411855 155.754 1.18065L173.098 24.2445L190.033 1.18065C190.633 0.411855 191.424 0.027457 192.406 0.027457H199.605ZM152.481 39.9773C153.245 39.9773 153.913 40.2519 154.486 40.801C155.058 41.3502 155.345 42.0366 155.345 42.8603V58.0989C155.345 58.8677 155.058 59.5404 154.486 60.117C153.913 60.6936 153.245 60.9819 152.481 60.9819H146.264C145.5 60.9819 144.832 60.6936 144.259 60.117C143.687 59.5404 143.4 58.8677 143.4 58.0989V42.8603C143.4 42.0366 143.687 41.3502 144.259 40.801C144.832 40.2519 145.5 39.9773 146.264 39.9773H152.481ZM276.787 57.1105C277.168 57.9891 277.073 58.8815 276.5 59.7875C275.928 60.6936 275.15 61.1467 274.169 61.1467H219.682C219.191 61.1467 218.727 61.0231 218.291 60.776C217.855 60.5289 217.527 60.2131 217.309 59.8287C216.709 58.9501 216.627 58.044 217.064 57.1105L219.6 51.0974C219.818 50.5483 220.173 50.1089 220.664 49.7795C221.154 49.45 221.673 49.2852 222.218 49.2852H260.342L246.925 16.9959L235.962 43.3545C235.744 43.9037 235.403 44.3293 234.94 44.6313C234.476 44.9333 233.944 45.0843 233.344 45.0843H226.472C225.436 45.0843 224.618 44.645 224.018 43.7664C223.8 43.382 223.663 42.9427 223.609 42.4485C223.554 41.9542 223.609 41.4875 223.772 41.0482L240.38 1.83962C240.598 1.29048 240.939 0.851165 241.403 0.521682C241.866 0.192198 242.398 0.027457 242.998 0.027457H250.852C251.452 0.027457 251.984 0.192198 252.448 0.521682C252.911 0.851165 253.252 1.29048 253.47 1.83962L276.787 57.1105ZM341.451 0.027457C342.214 0.027457 342.883 0.315755 343.455 0.892351C344.028 1.46895 344.314 2.14164 344.314 2.91044V58.0989C344.314 58.8677 344.028 59.5404 343.455 60.117C342.883 60.6936 342.214 60.9819 341.451 60.9819H334.251C333.27 60.9819 332.479 60.5975 331.879 59.8287L291.873 4.64022C291.546 4.20091 291.355 3.70669 291.3 3.15755C291.246 2.60841 291.341 2.08673 291.586 1.5925C291.832 1.09828 292.186 0.713881 292.65 0.439311C293.114 0.164741 293.618 0.027457 294.163 0.027457H301.363C301.799 0.027457 302.236 0.123557 302.672 0.315756C303.108 0.507954 303.435 0.796253 303.654 1.18065L332.37 40.4716V2.91044C332.37 2.14164 332.642 1.46895 333.188 0.892351C333.733 0.315755 334.415 0.027457 335.233 0.027457H341.451ZM300.381 39.9773C301.145 39.9773 301.813 40.2519 302.386 40.801C302.958 41.3502 303.245 42.0366 303.245 42.8603V58.0989C303.245 58.8677 302.958 59.5404 302.386 60.117C301.813 60.6936 301.145 60.9819 300.381 60.9819H294.163C293.4 60.9819 292.732 60.6936 292.159 60.117C291.586 59.5404 291.3 58.8677 291.3 58.0989V42.8603C291.3 42.0366 291.586 41.3502 292.159 40.801C292.732 40.2519 293.4 39.9773 294.163 39.9773H300.381ZM394.989 11.8065C394.28 11.6967 393.693 11.3672 393.23 10.818C392.766 10.2689 392.534 9.63739 392.534 8.92351V2.91044C392.534 1.9769 392.862 1.23556 393.516 0.686423C394.171 0.137284 394.934 -0.0823708 395.807 0.027457C400.497 0.796252 404.67 2.47113 408.324 5.05208C413.069 8.51166 416.423 13.097 418.387 18.808C418.714 19.7416 418.605 20.6202 418.06 21.4439C417.514 22.2676 416.723 22.6794 415.687 22.6794H409.142C408.542 22.6794 407.997 22.5284 407.506 22.2264C407.015 21.9244 406.661 21.4988 406.442 20.9497C405.242 18.0941 403.415 15.8152 400.961 14.1129C399.052 12.9048 397.061 12.136 394.989 11.8065ZM415.687 39.1536C416.723 39.1536 417.514 39.5655 418.06 40.3892C418.605 41.2129 418.714 42.0915 418.387 43.0251C416.423 48.7361 413.069 53.3214 408.324 56.781C404.67 59.3619 400.497 61.0368 395.807 61.8056H395.398C394.634 61.8056 394.007 61.5585 393.516 61.0643C392.862 60.57 392.534 59.8562 392.534 58.9226V52.9096C392.534 52.1957 392.752 51.5642 393.189 51.015C393.625 50.4659 394.198 50.1364 394.907 50.0266C397.198 49.6971 399.216 48.9283 400.961 47.7202C403.415 46.0179 405.242 43.7389 406.442 40.8834C406.661 40.3343 407.015 39.9087 407.506 39.6067C407.997 39.3046 408.542 39.1536 409.142 39.1536H415.687ZM386.398 1.01591C387.107 1.56505 387.462 2.30639 387.462 3.23992V9.66485C387.462 10.2689 387.257 10.8318 386.848 11.3535C386.439 11.8751 385.935 12.2458 385.335 12.4655C384.571 12.6302 383.971 12.8224 383.535 13.0421C381.353 14.0305 379.499 15.3759 377.972 17.0782C374.863 20.5927 373.308 25.1918 373.308 30.8753C373.308 36.5589 374.863 41.1854 377.972 44.7548C379.881 46.9514 382.335 48.489 385.335 49.3676C385.935 49.5324 386.439 49.8756 386.848 50.3972C387.257 50.9189 387.462 51.4818 387.462 52.0858V58.5931C387.462 59.5267 387.107 60.268 386.398 60.8172C385.908 61.2565 385.28 61.4761 384.517 61.4761H383.944C378.108 60.2131 373.172 57.3576 369.136 52.9096C363.955 47.0338 361.364 39.7028 361.364 30.9165C361.364 22.1303 363.955 14.7993 369.136 8.92351C373.172 4.42057 378.108 1.5925 383.944 0.439311C384.817 0.219655 385.635 0.411853 386.398 1.01591ZM444.109 24.4916C444.927 24.4916 445.609 24.7799 446.154 25.3565C446.699 25.9331 446.972 26.6332 446.972 27.457V58.2637C446.972 59.0325 446.699 59.7052 446.154 60.2817C445.609 60.8583 444.927 61.1467 444.109 61.1467H437.891C437.127 61.1467 436.459 60.8583 435.887 60.2817C435.314 59.7052 435.028 59.0325 435.028 58.2637V27.457C435.028 26.6332 435.314 25.9331 435.887 25.3565C436.459 24.7799 437.127 24.4916 437.891 24.4916H444.109ZM444.109 0.027457C444.927 0.027457 445.609 0.315755 446.154 0.892351C446.699 1.46895 446.972 2.14164 446.972 2.91044V18.149C446.972 18.9728 446.699 19.6729 446.154 20.2495C445.609 20.8261 444.927 21.1144 444.109 21.1144H437.891C437.127 21.1144 436.459 20.8261 435.887 20.2495C435.314 19.6729 435.028 18.9728 435.028 18.149V2.91044C435.028 2.14164 435.314 1.46895 435.887 0.892351C436.459 0.315755 437.127 0.027457 437.891 0.027457H444.109ZM497.646 11.8065C496.937 11.6967 496.351 11.3672 495.888 10.818C495.424 10.2689 495.192 9.63739 495.192 8.92351V2.91044C495.192 1.9769 495.519 1.23556 496.174 0.686423C496.828 0.137284 497.592 -0.0823708 498.465 0.027457C503.155 0.796252 507.328 2.47113 510.982 5.05208C515.727 8.51166 519.081 13.097 521.045 18.808C521.372 19.7416 521.263 20.6202 520.717 21.4439C520.172 22.2676 519.381 22.6794 518.345 22.6794H511.8C511.2 22.6794 510.655 22.5284 510.164 22.2264C509.673 21.9244 509.318 21.4988 509.1 20.9497C507.9 18.0941 506.073 15.8152 503.619 14.1129C501.71 12.9048 499.719 12.136 497.646 11.8065ZM518.345 39.1536C519.381 39.1536 520.172 39.5655 520.717 40.3892C521.263 41.2129 521.372 42.0915 521.045 43.0251C519.081 48.7361 515.727 53.3214 510.982 56.781C507.328 59.3619 503.155 61.0368 498.465 61.8056H498.056C497.292 61.8056 496.665 61.5585 496.174 61.0643C495.519 60.57 495.192 59.8562 495.192 58.9226V52.9096C495.192 52.1957 495.41 51.5642 495.847 51.015C496.283 50.4659 496.856 50.1364 497.565 50.0266C499.855 49.6971 501.873 48.9283 503.619 47.7202C506.073 46.0179 507.9 43.7389 509.1 40.8834C509.318 40.3343 509.673 39.9087 510.164 39.6067C510.655 39.3046 511.2 39.1536 511.8 39.1536H518.345ZM489.056 1.01591C489.765 1.56505 490.12 2.30639 490.12 3.23992V9.66485C490.12 10.2689 489.915 10.8318 489.506 11.3535C489.097 11.8751 488.593 12.2458 487.993 12.4655C487.229 12.6302 486.629 12.8224 486.193 13.0421C484.011 14.0305 482.157 15.3759 480.63 17.0782C477.521 20.5927 475.966 25.1918 475.966 30.8753C475.966 36.5589 477.521 41.1854 480.63 44.7548C482.538 46.9514 484.993 48.489 487.993 49.3676C488.593 49.5324 489.097 49.8756 489.506 50.3972C489.915 50.9189 490.12 51.4818 490.12 52.0858V58.5931C490.12 59.5267 489.765 60.268 489.056 60.8172C488.565 61.2565 487.938 61.4761 487.175 61.4761H486.602C480.766 60.2131 475.83 57.3576 471.794 52.9096C466.612 47.0338 464.022 39.7028 464.022 30.9165C464.022 22.1303 466.612 14.7993 471.794 8.92351C475.83 4.42057 480.766 1.5925 486.602 0.439311C487.475 0.219655 488.293 0.411853 489.056 1.01591ZM545.458 46.4846C546.221 46.4846 546.889 46.7592 547.462 47.3083C548.035 47.8575 548.321 48.5439 548.321 49.3676V57.9342C548.321 58.703 548.035 59.3757 547.462 59.9523C546.889 60.5289 546.221 60.8172 545.458 60.8172H538.013C537.194 60.8172 536.513 60.5289 535.967 59.9523C535.422 59.3757 535.149 58.703 535.149 57.9342V49.3676C535.149 48.5439 535.422 47.8575 535.967 47.3083C536.513 46.7592 537.194 46.4846 538.013 46.4846H545.458ZM602.84 2.1691C606.167 3.43212 609.167 5.46393 611.84 8.26454C617.567 14.0854 620.43 21.5125 620.43 30.5459C620.43 39.5792 617.567 47.0338 611.84 52.9096C609.167 55.7102 606.167 57.742 602.84 59.005C599.404 60.4328 595.886 61.1467 592.287 61.1467H569.134C568.37 61.1467 567.702 60.8583 567.129 60.2817C566.557 59.7052 566.271 59.0325 566.271 58.2637V52.333C566.271 51.5093 566.557 50.8091 567.129 50.2325C567.702 49.6559 568.37 49.3676 569.134 49.3676H592.041C596.896 49.3676 600.836 47.5829 603.863 44.0135C606.89 40.4441 608.404 35.9686 608.404 30.5871C608.404 25.2055 606.89 20.73 603.863 17.1606C600.836 13.5912 596.896 11.8065 592.041 11.8065H569.134C568.37 11.8065 567.702 11.5182 567.129 10.9416C566.557 10.365 566.271 9.66485 566.271 8.84114V2.91044C566.271 2.14164 566.557 1.46895 567.129 0.892351C567.702 0.315755 568.37 0.027457 569.134 0.027457H592.287C595.886 0.027457 599.404 0.741338 602.84 2.1691ZM680.84 49.2852C681.658 49.2852 682.34 49.5735 682.885 50.1501C683.431 50.7267 683.703 51.4269 683.703 52.2506V58.2637C683.703 59.0325 683.431 59.7052 682.885 60.2817C682.34 60.8583 681.658 61.1467 680.84 61.1467H640.425C639.661 61.1467 638.993 60.8583 638.421 60.2817C637.848 59.7052 637.562 59.0325 637.562 58.2637V52.2506C637.562 51.4269 637.848 50.7267 638.421 50.1501C638.993 49.5735 639.661 49.2852 640.425 49.2852H680.84ZM640.425 36.5178C639.661 36.5178 638.993 36.2295 638.421 35.6529C637.848 35.0763 637.562 34.4036 637.562 33.6348V27.457C637.562 26.6882 637.848 26.0155 638.421 25.4389C638.993 24.8623 639.661 24.574 640.425 24.574H677.159C677.977 24.574 678.672 24.8623 679.245 25.4389C679.817 26.0155 680.104 26.6882 680.104 27.457V33.6348C680.104 34.4036 679.817 35.0763 679.245 35.6529C678.672 36.2295 677.977 36.5178 677.159 36.5178H640.425ZM680.84 0.027457C681.658 0.027457 682.34 0.315755 682.885 0.892351C683.431 1.46895 683.703 2.14164 683.703 2.91044V8.92351C683.703 9.74722 683.431 10.4474 682.885 11.024C682.34 11.6006 681.658 11.8889 680.84 11.8889H640.425C639.661 11.8889 638.993 11.6006 638.421 11.024C637.848 10.4474 637.562 9.74722 637.562 8.92351V2.91044C637.562 2.14164 637.848 1.46895 638.421 0.892351C638.993 0.315755 639.661 0.027457 640.425 0.027457H680.84ZM751.886 1.34539C752.486 2.1691 752.595 3.07518 752.213 4.06363L729.796 59.8287C729.578 60.3779 729.224 60.8172 728.733 61.1467C728.242 61.4761 727.697 61.6409 727.097 61.6409H719.897C719.297 61.6409 718.752 61.4761 718.261 61.1467C717.77 60.8172 717.416 60.3779 717.197 59.8287L694.781 4.06363C694.345 3.13009 694.426 2.22401 695.026 1.34539C695.626 0.466769 696.417 0.027457 697.399 0.027457H724.724C725.488 0.027457 726.156 0.315755 726.728 0.892351C727.301 1.46895 727.588 2.1691 727.588 2.99281V9.00588C727.588 9.82959 727.301 10.5297 726.728 11.1063C726.156 11.6829 725.488 11.9712 724.724 11.9712H710.98L723.497 43.684L739.941 1.83962C740.159 1.29048 740.514 0.851165 741.005 0.521682C741.496 0.192198 742.041 0.027457 742.641 0.027457H749.513C750.004 0.027457 750.468 0.151014 750.904 0.398127C751.34 0.645239 751.667 0.960994 751.886 1.34539Z" fill="white"/>
</svg>
